<?xml version="1.0" standalone="no"?>
<!DOCTYPE svg PUBLIC "-//W3C//DTD SVG 20010904//EN"
 "http://www.w3.org/TR/2001/REC-SVG-20010904/DTD/svg10.dtd">
<svg version="1.0" xmlns="http://www.w3.org/2000/svg"
 width="916.000000pt" height="916.000000pt" viewBox="0 0 916.000000 916.000000"
 preserveAspectRatio="xMidYMid meet">
<metadata>
Created by potrace 1.11, written by Peter Selinger 2001-2013
</metadata>
<g transform="translate(0.000000,916.000000) scale(0.100000,-0.100000)"
fill="#000000" stroke="none">
<path d="M4299 9156 c-2 -2 -45 -7 -96 -10 -50 -4 -102 -9 -115 -11 -13 -2
-47 -6 -76 -9 -142 -16 -378 -60 -544 -101 -1176 -293 -2193 -1048 -2819
-2093 -169 -282 -311 -592 -414 -898 -38 -117 -96 -317 -110 -382 -2 -9 -11
-46 -19 -82 -9 -36 -25 -121 -36 -190 -12 -69 -23 -136 -25 -150 -3 -14 -7
-52 -11 -85 -3 -33 -7 -66 -10 -73 -25 -80 -25 -906 1 -984 2 -7 6 -40 10 -73
7 -81 26 -210 40 -275 3 -14 8 -40 10 -58 4 -29 45 -196 90 -367 70 -269 249
-698 410 -980 104 -184 260 -420 351 -535 7 -8 41 -51 76 -95 34 -44 67 -85
73 -91 5 -6 39 -44 75 -84 105 -120 316 -325 445 -435 309 -263 592 -449 950
-625 430 -211 837 -341 1300 -415 55 -9 118 -18 140 -21 22 -2 54 -6 70 -9
175 -28 866 -28 1037 0 13 2 46 6 73 10 82 10 117 15 170 25 28 5 66 12 85 15
128 20 349 76 550 140 535 170 1019 431 1473 793 276 220 581 534 783 807 32
44 62 82 65 85 23 20 211 317 299 475 28 49 141 276 164 328 9 20 22 52 30 70
134 307 252 711 306 1047 6 36 13 76 15 90 3 14 7 50 11 80 3 30 7 65 9 78 20
124 28 709 13 892 -32 378 -100 709 -223 1075 -224 673 -598 1278 -1100 1780
-580 580 -1289 988 -2085 1199 -52 14 -106 27 -120 30 -14 3 -56 12 -95 20
-90 20 -360 63 -450 71 -38 4 -86 9 -105 12 -40 5 -666 14 -671 9z m595 -550
c21 -3 69 -8 107 -11 38 -4 79 -8 91 -10 21 -5 40 -7 138 -20 209 -28 579
-130 825 -227 345 -136 707 -343 991 -564 169 -132 202 -162 389 -349 452
-451 763 -950 973 -1560 31 -88 96 -315 106 -365 2 -14 16 -81 30 -150 14 -69
30 -165 36 -215 6 -49 13 -101 16 -115 25 -148 25 -729 0 -880 -3 -14 -9 -63
-15 -110 -54 -417 -195 -870 -397 -1271 -80 -158 -225 -399 -316 -524 -485
-663 -1103 -1140 -1853 -1430 -115 -45 -293 -102 -405 -130 -36 -10 -72 -19
-80 -21 -43 -11 -251 -53 -290 -59 -25 -3 -52 -8 -60 -10 -8 -2 -43 -7 -78
-10 -35 -4 -73 -8 -85 -11 -58 -11 -244 -19 -452 -18 -264 1 -397 10 -580 39
-16 3 -41 7 -55 9 -454 71 -977 259 -1374 493 -328 195 -563 377 -831 647
-226 226 -348 376 -509 621 -127 192 -156 242 -246 423 -158 316 -275 649
-340 968 -27 132 -27 134 -36 191 -3 26 -8 56 -10 67 -2 10 -6 41 -9 70 -4 28
-8 65 -10 81 -24 184 -24 764 -1 836 3 8 7 43 10 79 15 162 64 402 130 635 25
91 89 283 106 320 5 11 27 63 49 116 123 296 286 580 484 846 42 55 86 114 99
129 124 148 171 198 297 324 143 142 208 201 314 284 29 22 54 43 57 46 8 9
178 131 245 176 180 121 460 270 680 362 174 73 498 179 605 198 14 3 33 7 42
10 9 3 27 7 40 9 13 3 57 11 98 19 110 22 154 29 255 40 33 4 67 9 75 11 8 2
71 7 140 11 69 3 126 7 128 9 5 4 435 -3 476 -9z"/>
<path d="M3040 5806 c-30 -13 -192 -78 -360 -145 -168 -68 -318 -128 -335
-135 -16 -8 -73 -30 -125 -51 -52 -21 -108 -43 -125 -50 -16 -8 -73 -30 -125
-51 -52 -20 -98 -40 -102 -43 -8 -7 23 -41 238 -267 78 -82 159 -167 179 -189
21 -22 99 -105 174 -184 75 -79 152 -161 171 -181 19 -20 105 -111 191 -201
86 -90 167 -176 180 -190 13 -15 87 -93 164 -174 77 -81 157 -166 179 -189 21
-23 77 -82 125 -132 91 -96 349 -368 397 -419 16 -17 93 -98 171 -180 78 -83
165 -175 193 -205 29 -30 115 -121 192 -202 77 -81 153 -162 169 -180 l29 -33
87 90 c87 91 106 112 378 399 83 87 168 177 190 201 155 162 329 346 360 380
39 41 293 310 426 450 82 86 156 164 246 260 31 33 125 131 207 219 83 87 169
177 191 201 22 23 101 106 175 185 74 78 155 164 180 190 25 26 101 107 170
180 69 74 133 141 143 150 17 17 10 21 -150 85 -92 37 -181 73 -198 80 -16 7
-66 27 -110 45 -172 68 -481 192 -500 200 -62 28 -271 110 -280 110 -6 0 -61
-53 -121 -117 -60 -64 -124 -133 -143 -152 -18 -20 -93 -99 -166 -176 -73 -77
-150 -158 -170 -180 -21 -22 -101 -107 -179 -189 -77 -82 -177 -188 -221 -234
-44 -47 -96 -102 -115 -122 -112 -118 -321 -339 -355 -377 l-40 -44 -70 73
c-144 151 -392 414 -421 444 -16 18 -88 94 -160 170 -73 77 -151 159 -174 184
-23 25 -99 106 -170 180 -70 74 -147 155 -170 180 -23 25 -106 112 -184 194
-77 81 -142 152 -144 157 -5 14 -32 9 -92 -15z"/>
</g>
</svg>
