<?xml version="1.0" standalone="no"?>
<!DOCTYPE svg PUBLIC "-//W3C//DTD SVG 20010904//EN"
 "http://www.w3.org/TR/2001/REC-SVG-20010904/DTD/svg10.dtd">
<svg version="1.0" xmlns="http://www.w3.org/2000/svg"
 width="260.000000pt" height="260.000000pt" viewBox="0 0 260.000000 260.000000"
 preserveAspectRatio="xMidYMid meet">
<metadata>
Created by potrace 1.11, written by Peter Selinger 2001-2013
</metadata>
<g transform="translate(0.000000,260.000000) scale(0.100000,-0.100000)"
fill="#000000" stroke="none">
<path d="M1169 2596 c-2 -2 -24 -6 -49 -10 -415 -53 -783 -317 -978 -698 -47
-92 -104 -254 -117 -328 -3 -19 -9 -55 -13 -80 -9 -58 -9 -279 0 -350 70 -550
482 -989 1038 -1107 131 -27 382 -25 520 6 313 68 575 236 769 491 178 235
264 505 256 805 -4 156 -6 168 -34 288 -95 398 -389 737 -778 894 -145 58
-275 84 -454 89 -85 3 -157 3 -160 0z m281 -160 c120 -15 234 -51 355 -111
234 -116 403 -285 520 -520 158 -317 160 -683 6 -1000 -240 -492 -780 -747
-1306 -616 -257 64 -484 216 -650 436 -98 130 -189 355 -211 525 -21 161 -2
359 51 516 137 409 520 722 940 769 33 4 61 8 62 9 5 4 189 -2 233 -8z"/>
<path d="M693 1581 c-107 -44 -159 -70 -155 -78 4 -6 43 -49 86 -95 44 -46
123 -128 175 -183 190 -199 399 -421 451 -477 30 -32 57 -58 60 -58 7 0 90 83
160 160 34 37 254 269 400 423 164 172 220 232 220 237 0 6 -3 7 -194 84 -76
31 -144 56 -150 56 -7 0 -70 -62 -142 -137 -71 -75 -166 -175 -211 -223 l-82
-85 -63 67 c-35 36 -121 128 -193 203 -71 75 -137 145 -146 156 -9 10 -25 18
-35 18 -11 -1 -92 -31 -181 -68z"/>
</g>
</svg>
