<svg id="Layer_1" xmlns="http://www.w3.org/2000/svg" xmlns:xlink="http://www.w3.org/1999/xlink" viewBox="0 0 32 32"><style>.st0{clip-path:url(#XMLID_4_)}.st1{clip-path:url(#XMLID_10_);fill:#fff}</style><g id="XMLID_1_"><defs><path id="XMLID_5_" d="M0 0h32v32H0z"/></defs><clipPath id="XMLID_4_"><use xlink:href="#XMLID_5_" overflow="visible"/></clipPath><g class="st0"><defs><path id="XMLID_6_" d="M0 0h32v32H0z"/></defs><clipPath id="XMLID_10_"><use xlink:href="#XMLID_6_" overflow="visible"/></clipPath><path class="st1" d="M16 1.9c7.8 0 14.1 6.3 14.1 14.1S23.8 30.1 16 30.1 1.9 23.8 1.9 16 8.2 1.9 16 1.9M16 0C7.2 0 0 7.2 0 16s7.2 16 16 16 16-7.2 16-16S24.8 0 16 0"/><path id="XMLID_7_" class="st1" d="M21.4 11.6l-5.3 5.6-5.2-5.6-4.4 1.8 9.6 10.2 9.7-10.2z"/></g></g></svg>