<svg id="Layer_1" data-name="Layer 1" xmlns="http://www.w3.org/2000/svg" viewBox="0 0 201 32"><defs><style>.cls-1{fill:none}.cls-2{fill:#fff}.cls-3{clip-path:url(#clip-path)}</style><clipPath id="clip-path"><path class="cls-1" d="M0 0h32v32H0z"/></clipPath></defs><title>logo</title><path class="cls-2" d="M60.17 5.62l-8.43 19.75H49.9L41.45 5.62h1.87l7.49 17.72h.06l7.38-17.72h1.92zm-1.32 12.96c0-4 2.33-7.3 6.14-7.3a5.61 5.61 0 0 1 5 2.93h.05l.05-2.65h1.47v13.81H70v-2.75h-.05a5.65 5.65 0 0 1-5.06 3c-3.81.03-6.04-3.18-6.04-7.04zm11.2-.1c0-3.34-1.78-5.84-4.8-5.84s-4.83 2.73-4.83 5.86 1.65 5.79 4.77 5.79 4.86-2.52 4.86-5.82zm5.18 6.89V5.62h1.57v19.75h-1.57zm5.59 0V5.62h1.58v19.75h-1.58zm16.58-1.93a6.49 6.49 0 0 1-5.17 2.21c-4.25 0-6.82-3-6.82-7.3 0-4 2.39-7.07 6.35-7.07s6.11 2.88 6.11 6.69a8.48 8.48 0 0 1-.08 1.13H87c.26 3 2.18 5.22 5.27 5.22a4.79 4.79 0 0 0 4-1.85zm-1.08-5.68c-.1-2.93-1.73-5.14-4.56-5.14S87.2 14.75 87 17.76h9.31zm15.4-6.2l-6.21 15.14c-1 2.57-2.18 3.65-4.2 3.65a4.58 4.58 0 0 1-1.7-.31v-1.28a4.25 4.25 0 0 0 1.49.28c1.39 0 2.12-.77 3-2.67l.39-.9-5.78-13.91h1.7l4.83 12h.05l4.77-12h1.65zm6.28 3.93c0-5.81 3.49-10.16 9-10.16a8.4 8.4 0 0 1 7.26 3.88l-1.26.87a6.75 6.75 0 0 0-6-3.37c-4.77 0-7.42 4-7.42 8.72s2.62 8.82 7.5 8.82a6.83 6.83 0 0 0 6-3.29l1.23.85a8.48 8.48 0 0 1-7.29 3.83c-5.56.01-9.02-4.39-9.02-10.15zm19.3-9.87h1.57v8.48h.05a5.17 5.17 0 0 1 4.83-2.83 4.7 4.7 0 0 1 5 5v9.08h-1.57v-8.73c0-2.19-1.18-4-3.78-4s-4.54 1.9-4.54 5v7.79h-1.56V5.62zm25.9 19.75h-1.55V22.8h-.05a5.14 5.14 0 0 1-4.85 2.85 4.69 4.69 0 0 1-5-5v-9.1h1.57v8.75c0 2.19 1.18 4 3.78 4s4.54-1.9 4.54-5v-7.74h1.57v13.81zm3.36-13.81h1.52v2.57a4.29 4.29 0 0 1 4-2.85 3.79 3.79 0 0 1 1.36.23V13a4.38 4.38 0 0 0-1.47-.26c-2.33 0-3.86 2.08-3.86 4.45v8.15h-1.57V11.56zm8.2 6.91c0-4 2.44-7.2 6.53-7.2a6 6 0 0 1 5.53 3.27l-1.34.72a4.55 4.55 0 0 0-4.2-2.65c-3.17 0-5 2.57-5 5.84s1.81 5.86 5 5.86a4.58 4.58 0 0 0 4.22-2.6l1.31.72a6 6 0 0 1-5.56 3.21c-4.05.01-6.49-3.15-6.49-7.17zm14.78-12.85h1.57v8.48h.05a5.17 5.17 0 0 1 4.84-2.83 4.7 4.7 0 0 1 5 5v9.08h-1.57v-8.73c0-2.19-1.18-4-3.78-4s-4.54 1.9-4.54 5v7.79h-1.57V5.62z"/><g class="cls-3" id="Icon_outline_white" data-name="Icon outline white"><g class="cls-3"><path class="cls-2" d="M16 1.89A14.11 14.11 0 1 1 1.89 16 14.12 14.12 0 0 1 16 1.89M16 0a16 16 0 1 0 16 16A16 16 0 0 0 16 0"/><path class="cls-2" d="M21.41 11.62l-5.26 5.57-5.27-5.57-4.39 1.77 9.66 10.19 9.65-10.19-4.39-1.77z"/></g></g></svg>