<svg id="Layer_1" xmlns="http://www.w3.org/2000/svg" xmlns:xlink="http://www.w3.org/1999/xlink" viewBox="0 0 865.3 138.3"><style>.st0{clip-path:url(#SVGID_2_)}.st1{clip-path:url(#SVGID_4_)}.st1,.st2{fill:#FFF}.st2,.st3{clip-path:url(#SVGID_6_)}.st4{clip-path:url(#SVGID_8_);fill:#FFF}</style><defs><path id="SVGID_1_" d="M0 0h138.3v138.3H0z"/></defs><clipPath id="SVGID_2_"><use xlink:href="#SVGID_1_" overflow="visible"/></clipPath><g class="st0"><defs><path id="SVGID_3_" d="M0 0h138.3v138.3H0z"/></defs><clipPath id="SVGID_4_"><use xlink:href="#SVGID_3_" overflow="visible"/></clipPath><path class="st1" d="M69.2 8.2c33.6 0 61 27.4 61 61s-27.4 61-61 61-61-27.4-61-61 27.3-61 61-61m0-8.2C31 0 0 31 0 69.2s31 69.2 69.2 69.2 69.2-31 69.2-69.2S107.4 0 69.2 0"/><path class="st1" d="M92.6 50.2L69.8 74.3 47 50.2l-18.9 7.7 41.7 44 41.7-44z"/></g><g><defs><path id="SVGID_5_" d="M177.3 15.2h688.1v107.9H177.3z"/></defs><clipPath id="SVGID_6_"><use xlink:href="#SVGID_5_" overflow="visible"/></clipPath><path class="st2" d="M249.7 16.4l-31.8 76.4h-.3l-32.3-76.4h-8l36.4 85.2h8L258 16.4z"/><g class="st3"><defs><path id="SVGID_7_" d="M177.3 15.2h688.1v107.9H177.3z"/></defs><clipPath id="SVGID_8_"><use xlink:href="#SVGID_7_" overflow="visible"/></clipPath><path class="st4" d="M252.3 72.3c0-17.3 10.1-31.5 26.5-31.5 10 0 17 5 21.6 12.6h.2l.2-11.4h6.3v59.6h-6.7l-.1-11.9h-.2c-4.5 8.1-12.2 13.1-21.8 13.1-16.4 0-26-13.8-26-30.5m48.3-.4c0-14.4-7.7-25.2-20.7-25.2-13.6 0-20.8 11.8-20.8 25.3 0 13.4 7.1 25 20.6 25 13.2-.1 20.9-10.9 20.9-25.1M322.9 16.4h6.8v85.2h-6.8zM347.1 16.4h6.8v85.2h-6.8zM418.6 93.3c-5.4 6.1-12.4 9.5-22.3 9.5-18.3 0-29.4-13.1-29.4-31.5 0-17.2 10.3-30.5 27.4-30.5 16.5 0 26.4 12.4 26.4 28.8 0 1.1-.1 3.7-.3 4.9h-46.5c1.1 13 9.4 22.5 22.7 22.5 7.1 0 12.9-2.7 17.1-8l4.9 4.3zm-4.7-24.5c-.5-12.6-7.5-22.2-19.7-22.2s-19.7 9.2-20.5 22.2h40.2zM480.3 42l-26.8 65.3c-4.5 11.1-9.4 15.7-18.1 15.7-3.1 0-5.3-.6-7.4-1.3v-5.5c1.5.6 3.7 1.2 6.4 1.2 6 0 9.2-3.3 12.8-11.5l1.7-3.9-24.8-60h7.4l20.8 51.7h.2L473.2 42h7.1zM507.4 59c0-25.1 15-43.8 38.9-43.8 13.8 0 24.5 6.4 31.3 16.7l-5.4 3.8c-5.7-9.1-14.4-14.5-25.7-14.5-20.6 0-32 17.1-32 37.6 0 20.6 11.3 38 32.3 38 11.3 0 20.1-5.3 25.8-14.2l5.3 3.7c-6.6 10-17.5 16.5-31.4 16.5-24.2 0-39.1-19-39.1-43.8M590.6 16.4h6.8V53h.2c4.2-7.8 11.2-12.2 20.8-12.2 13.6 0 21.6 9 21.6 21.6v39.1h-6.8V63.9c0-9.4-5.1-17.3-16.3-17.3-11.2 0-19.6 8.2-19.6 21.4v33.6h-6.8V16.4zM702.3 101.6h-6.7l-.1-11.1h-.2c-4.1 7.9-11.2 12.3-20.9 12.3-13.5 0-21.5-9-21.5-21.5V42h6.8v37.7c0 9.4 5.1 17.3 16.3 17.3 11.2 0 19.6-8.2 19.6-21.4V42h6.8v59.6zM716.8 42h6.6l.1 11.1h.1c3.5-7.8 9.4-12.3 17.1-12.3 2.1 0 4.2.3 5.9 1v6.5c-1.8-.7-4.1-1.1-6.3-1.1-10.1 0-16.6 9-16.6 19.2v35.2h-6.8V42zM752.2 71.9c0-17.3 10.5-31.1 28.2-31.1 11.3 0 19.5 5.8 23.9 14.1l-5.8 3.1c-3.5-6.9-9.6-11.4-18.1-11.4-13.7 0-21.4 11.1-21.4 25.2 0 14 7.8 25.3 21.5 25.3 8.5 0 14.7-4.4 18.2-11.2l5.7 3.1c-4.5 8.4-12.8 13.9-24 13.9-17.7-.1-28.2-13.7-28.2-31M815.9 16.4h6.8V53h.2c4.2-7.8 11.2-12.2 20.8-12.2 13.6 0 21.6 9 21.6 21.6v39.1h-6.8V63.9c0-9.4-5.1-17.3-16.3-17.3-11.2 0-19.6 8.2-19.6 21.4v33.6h-6.8V16.4z"/></g></g></svg>