<?xml version="1.0" encoding="utf-8"?>
<!-- Generator: Adobe Illustrator 19.0.0, SVG Export Plug-In . SVG Version: 6.00 Build 0)  -->
<svg version="1.1" id="Layer_1" xmlns="http://www.w3.org/2000/svg" xmlns:xlink="http://www.w3.org/1999/xlink" x="0px" y="0px"
	 viewBox="0 0 32 32" style="enable-background:new 0 0 32 32;" xml:space="preserve">
<style type="text/css">
	.st0{clip-path:url(#XMLID_4_);}
	.st1{clip-path:url(#XMLID_10_);fill:#FFFFFF;}
</style>
<g id="XMLID_1_">
	<g>
		<defs>
			<rect id="XMLID_5_" x="0" y="0" width="32" height="32"/>
		</defs>
		<clipPath id="XMLID_4_">
			<use xlink:href="#XMLID_5_"  style="overflow:visible;"/>
		</clipPath>
		<g class="st0">
			<defs>
				<rect id="XMLID_6_" x="0" y="0" width="32" height="32"/>
			</defs>
			<clipPath id="XMLID_10_">
				<use xlink:href="#XMLID_6_"  style="overflow:visible;"/>
			</clipPath>
			<path class="st1" d="M16,1.9c7.8,0,14.1,6.3,14.1,14.1S23.8,30.1,16,30.1S1.9,23.8,1.9,16S8.2,1.9,16,1.9 M16,0C7.2,0,0,7.2,0,16
				s7.2,16,16,16s16-7.2,16-16S24.8,0,16,0"/>
			<polygon id="XMLID_7_" class="st1" points="21.4,11.6 16.1,17.2 10.9,11.6 6.5,13.4 16.1,23.6 25.8,13.4 			"/>
		</g>
	</g>
</g>
</svg>
