<?xml version="1.0" encoding="utf-8"?>
<!-- Generator: Adobe Illustrator 19.0.0, SVG Export Plug-In . SVG Version: 6.00 Build 0)  -->
<svg version="1.1" id="Layer_1" xmlns="http://www.w3.org/2000/svg" xmlns:xlink="http://www.w3.org/1999/xlink" x="0px" y="0px"
	 viewBox="0 0 865.3 138.3" style="enable-background:new 0 0 865.3 138.3;" xml:space="preserve">
<style type="text/css">
	.st0{clip-path:url(#SVGID_2_);}
	.st1{clip-path:url(#SVGID_4_);fill:#FFFFFF;}
	.st2{clip-path:url(#SVGID_6_);fill:#FFFFFF;}
	.st3{clip-path:url(#SVGID_6_);}
	.st4{clip-path:url(#SVGID_8_);fill:#FFFFFF;}
</style>
<g>
	<g>
		<defs>
			<rect id="SVGID_1_" y="0" width="138.3" height="138.3"/>
		</defs>
		<clipPath id="SVGID_2_">
			<use xlink:href="#SVGID_1_"  style="overflow:visible;"/>
		</clipPath>
		<g class="st0">
			<defs>
				<rect id="SVGID_3_" y="0" width="138.3" height="138.3"/>
			</defs>
			<clipPath id="SVGID_4_">
				<use xlink:href="#SVGID_3_"  style="overflow:visible;"/>
			</clipPath>
			<path class="st1" d="M69.2,8.2c33.6,0,61,27.4,61,61s-27.4,61-61,61s-61-27.4-61-61S35.5,8.2,69.2,8.2 M69.2,0C31,0,0,31,0,69.2
				s31,69.2,69.2,69.2s69.2-31,69.2-69.2S107.4,0,69.2,0"/>
			<polygon class="st1" points="92.6,50.2 69.8,74.3 47,50.2 28.1,57.9 69.8,101.9 111.5,57.9 			"/>
		</g>
	</g>
</g>
<g>
	<g>
		<defs>
			<rect id="SVGID_5_" x="177.3" y="15.2" width="688.1" height="107.9"/>
		</defs>
		<clipPath id="SVGID_6_">
			<use xlink:href="#SVGID_5_"  style="overflow:visible;"/>
		</clipPath>
		<polygon class="st2" points="249.7,16.4 217.9,92.8 217.6,92.8 185.3,16.4 177.3,16.4 213.7,101.6 221.7,101.6 258,16.4 		"/>
		<g class="st3">
			<defs>
				<rect id="SVGID_7_" x="177.3" y="15.2" width="688.1" height="107.9"/>
			</defs>
			<clipPath id="SVGID_8_">
				<use xlink:href="#SVGID_7_"  style="overflow:visible;"/>
			</clipPath>
			<path class="st4" d="M252.3,72.3c0-17.3,10.1-31.5,26.5-31.5c10,0,17,5,21.6,12.6h0.2l0.2-11.4h6.3v59.6h-6.7l-0.1-11.9h-0.2
				c-4.5,8.1-12.2,13.1-21.8,13.1C261.9,102.8,252.3,89,252.3,72.3 M300.6,71.9c0-14.4-7.7-25.2-20.7-25.2
				c-13.6,0-20.8,11.8-20.8,25.3c0,13.4,7.1,25,20.6,25C292.9,96.9,300.6,86.1,300.6,71.9"/>
			<rect x="322.9" y="16.4" class="st4" width="6.8" height="85.2"/>
			<rect x="347.1" y="16.4" class="st4" width="6.8" height="85.2"/>
			<path class="st4" d="M418.6,93.3c-5.4,6.1-12.4,9.5-22.3,9.5c-18.3,0-29.4-13.1-29.4-31.5c0-17.2,10.3-30.5,27.4-30.5
				c16.5,0,26.4,12.4,26.4,28.8c0,1.1-0.1,3.7-0.3,4.9h-46.5c1.1,13,9.4,22.5,22.7,22.5c7.1,0,12.9-2.7,17.1-8L418.6,93.3z
				 M413.9,68.8c-0.5-12.6-7.5-22.2-19.7-22.2s-19.7,9.2-20.5,22.2H413.9z"/>
			<path class="st4" d="M480.3,42l-26.8,65.3c-4.5,11.1-9.4,15.7-18.1,15.7c-3.1,0-5.3-0.6-7.4-1.3v-5.5c1.5,0.6,3.7,1.2,6.4,1.2
				c6,0,9.2-3.3,12.8-11.5l1.7-3.9l-24.8-60h7.4l20.8,51.7h0.2L473.2,42H480.3z"/>
			<path class="st4" d="M507.4,59c0-25.1,15-43.8,38.9-43.8c13.8,0,24.5,6.4,31.3,16.7l-5.4,3.8c-5.7-9.1-14.4-14.5-25.7-14.5
				c-20.6,0-32,17.1-32,37.6c0,20.6,11.3,38,32.3,38c11.3,0,20.1-5.3,25.8-14.2l5.3,3.7c-6.6,10-17.5,16.5-31.4,16.5
				C522.3,102.8,507.4,83.8,507.4,59"/>
			<path class="st4" d="M590.6,16.4h6.8V53h0.2c4.2-7.8,11.2-12.2,20.8-12.2c13.6,0,21.6,9,21.6,21.6v39.1h-6.8V63.9
				c0-9.4-5.1-17.3-16.3-17.3c-11.2,0-19.6,8.2-19.6,21.4v33.6h-6.8V16.4z"/>
			<path class="st4" d="M702.3,101.6h-6.7l-0.1-11.1h-0.2c-4.1,7.9-11.2,12.3-20.9,12.3c-13.5,0-21.5-9-21.5-21.5V42h6.8v37.7
				c0,9.4,5.1,17.3,16.3,17.3c11.2,0,19.6-8.2,19.6-21.4V42h6.8V101.6z"/>
			<path class="st4" d="M716.8,42h6.6l0.1,11.1h0.1c3.5-7.8,9.4-12.3,17.1-12.3c2.1,0,4.2,0.3,5.9,1v6.5c-1.8-0.7-4.1-1.1-6.3-1.1
				c-10.1,0-16.6,9-16.6,19.2v35.2h-6.8V42z"/>
			<path class="st4" d="M752.2,71.9c0-17.3,10.5-31.1,28.2-31.1c11.3,0,19.5,5.8,23.9,14.1l-5.8,3.1c-3.5-6.9-9.6-11.4-18.1-11.4
				c-13.7,0-21.4,11.1-21.4,25.2c0,14,7.8,25.3,21.5,25.3c8.5,0,14.7-4.4,18.2-11.2l5.7,3.1c-4.5,8.4-12.8,13.9-24,13.9
				C762.7,102.8,752.2,89.2,752.2,71.9"/>
			<path class="st4" d="M815.9,16.4h6.8V53h0.2c4.2-7.8,11.2-12.2,20.8-12.2c13.6,0,21.6,9,21.6,21.6v39.1h-6.8V63.9
				c0-9.4-5.1-17.3-16.3-17.3c-11.2,0-19.6,8.2-19.6,21.4v33.6h-6.8V16.4z"/>
		</g>
	</g>
</g>
</svg>
