<svg id="Layer_1" data-name="Layer 1" xmlns="http://www.w3.org/2000/svg" viewBox="0 0 865.33 138.31"><defs><style>.cls-1{fill:#fff;}</style></defs><title>logo</title><path class="cls-1" d="M258,19.91l-36.35,85.17h-7.93L177.26,19.91h8l32.32,76.41h0.24l31.83-76.41H258Z"/><path class="cls-1" d="M252.32,75.8c0-17.3,10.07-31.5,26.47-31.5,10,0,17,5,21.6,12.64h0.23l0.23-11.42h6.33v59.55H300.5l-0.11-11.87h-0.23c-4.52,8.1-12.21,13.09-21.83,13.09C261.94,106.3,252.32,92.44,252.32,75.8Zm48.29-.44c0-14.42-7.69-25.17-20.7-25.17-13.57,0-20.81,11.76-20.81,25.29s7.12,25,20.58,25C292.93,100.42,300.62,89.56,300.62,75.36Z"/><path class="cls-1" d="M322.93,105.08V19.91h6.79v85.17h-6.79Z"/><path class="cls-1" d="M347.08,105.08V19.91h6.79v85.17h-6.79Z"/><path class="cls-1" d="M418.56,96.77c-5.43,6.1-12.44,9.54-22.28,9.54-18.32,0-29.41-13.09-29.41-31.5,0-17.19,10.29-30.5,27.37-30.5,16.51,0,26.35,12.42,26.35,28.83a36.59,36.59,0,0,1-.34,4.88H373.77c1.13,13,9.39,22.51,22.73,22.51,7.13,0,12.89-2.66,17.08-8Zm-4.64-24.51c-0.45-12.64-7.46-22.18-19.68-22.18s-19.68,9.21-20.47,22.18h40.15Z"/><path class="cls-1" d="M480.32,45.53l-26.81,65.32c-4.52,11.09-9.39,15.75-18.1,15.75a19.74,19.74,0,0,1-7.35-1.33v-5.54a18.34,18.34,0,0,0,6.45,1.22c6,0,9.16-3.33,12.78-11.53l1.7-3.88-24.77-60h7.35l20.81,51.68h0.23L473.2,45.53h7.13Z"/><path class="cls-1" d="M507.38,62.5c0-25.06,15-43.81,38.91-43.81,13.8,0,24.54,6.43,31.33,16.75l-5.43,3.77c-5.66-9.09-14.36-14.53-25.67-14.53-20.58,0-32,17.08-32,37.6s11.31,38,32.35,38a29.47,29.47,0,0,0,25.79-14.2L578,89.78c-6.56,10-17.53,16.52-31.44,16.52C522.31,106.3,507.38,87.34,507.38,62.5Z"/><path class="cls-1" d="M590.63,19.91h6.79v36.6h0.23c4.18-7.76,11.2-12.2,20.81-12.2,13.57,0,21.6,9,21.6,21.63v39.15h-6.79V67.38c0-9.43-5.09-17.3-16.29-17.3s-19.57,8.21-19.57,21.4v33.6h-6.79V19.91Z"/><path class="cls-1" d="M702.3,105.08h-6.67L695.51,94h-0.23c-4.07,7.88-11.2,12.31-20.92,12.31-13.46,0-21.49-9-21.49-21.51V45.53h6.79V83.24c0,9.43,5.09,17.3,16.29,17.3s19.57-8.21,19.57-21.4V45.53h6.79v59.55Z"/><path class="cls-1" d="M716.81,45.53h6.56l0.11,11.09h0.11c3.51-7.76,9.39-12.31,17.08-12.31a16.32,16.32,0,0,1,5.88,1v6.54a18.91,18.91,0,0,0-6.33-1.11c-10.06,0-16.63,9-16.63,19.18v35.16h-6.79V45.53Z"/><path class="cls-1" d="M752.19,75.36c0-17.3,10.52-31.05,28.16-31.05,11.31,0,19.45,5.77,23.86,14.08l-5.77,3.1c-3.51-6.88-9.61-11.42-18.1-11.42C766.67,50.08,759,61.17,759,75.25s7.81,25.28,21.49,25.28c8.48,0,14.7-4.44,18.21-11.2l5.66,3.11c-4.52,8.43-12.78,13.86-24,13.86C762.71,106.3,752.19,92.66,752.19,75.36Z"/><path class="cls-1" d="M815.91,19.91h6.79v36.6h0.23c4.18-7.76,11.2-12.2,20.81-12.2,13.57,0,21.6,9,21.6,21.63v39.15h-6.79V67.38c0-9.43-5.09-17.3-16.29-17.3s-19.57,8.21-19.57,21.4v33.6h-6.79V19.91Z"/><path class="cls-1" d="M69.16,0a69.16,69.16,0,1,0,69.16,69.16A69.16,69.16,0,0,0,69.16,0Zm1,100.73L28.45,56.65l19-7.63L70.17,73.12,92.94,49l19,7.63Z"/></svg>