<svg id="Layer_1" data-name="Layer 1" xmlns="http://www.w3.org/2000/svg" xmlns:xlink="http://www.w3.org/1999/xlink" viewBox="0 0 201 32"><defs><style>.cls-1{fill:none;}.cls-2{fill:#fff;}.cls-3{clip-path:url(#clip-path);}</style><clipPath id="clip-path" transform="translate(0 0)"><rect class="cls-1" width="32" height="32"/></clipPath></defs><title>logo</title><path class="cls-2" d="M60.17,5.62L51.74,25.37H49.9L41.45,5.62h1.87l7.49,17.72h0.06L58.25,5.62h1.92Z" transform="translate(0 0)"/><path class="cls-2" d="M58.85,18.58c0-4,2.33-7.3,6.14-7.3a5.61,5.61,0,0,1,5,2.93h0.05l0.05-2.65h1.47V25.37H70l0-2.75H69.95a5.65,5.65,0,0,1-5.06,3C61.08,25.65,58.85,22.44,58.85,18.58Zm11.2-.1c0-3.34-1.78-5.84-4.8-5.84s-4.83,2.73-4.83,5.86,1.65,5.79,4.77,5.79S70.05,21.77,70.05,18.47Z" transform="translate(0 0)"/><path class="cls-2" d="M75.23,25.37V5.62H76.8V25.37H75.23Z" transform="translate(0 0)"/><path class="cls-2" d="M80.82,25.37V5.62H82.4V25.37H80.82Z" transform="translate(0 0)"/><path class="cls-2" d="M97.4,23.44a6.49,6.49,0,0,1-5.17,2.21c-4.25,0-6.82-3-6.82-7.3,0-4,2.39-7.07,6.35-7.07s6.11,2.88,6.11,6.69a8.48,8.48,0,0,1-.08,1.13H87c0.26,3,2.18,5.22,5.27,5.22a4.79,4.79,0,0,0,4-1.85Zm-1.08-5.68c-0.1-2.93-1.73-5.14-4.56-5.14S87.2,14.75,87,17.76h9.31Z" transform="translate(0 0)"/><path class="cls-2" d="M111.72,11.56L105.51,26.7c-1,2.57-2.18,3.65-4.2,3.65a4.58,4.58,0,0,1-1.7-.31V28.76a4.25,4.25,0,0,0,1.49.28c1.39,0,2.12-.77,3-2.67l0.39-.9L98.71,11.56h1.7l4.83,12h0.05l4.77-12h1.65Z" transform="translate(0 0)"/><path class="cls-2" d="M118,15.49c0-5.81,3.49-10.16,9-10.16a8.4,8.4,0,0,1,7.26,3.88l-1.26.87a6.75,6.75,0,0,0-6-3.37c-4.77,0-7.42,4-7.42,8.72s2.62,8.82,7.5,8.82a6.83,6.83,0,0,0,6-3.29l1.23,0.85a8.48,8.48,0,0,1-7.29,3.83C121.46,25.65,118,21.25,118,15.49Z" transform="translate(0 0)"/><path class="cls-2" d="M137.3,5.62h1.57V14.1h0.05a5.17,5.17,0,0,1,4.83-2.83,4.7,4.7,0,0,1,5,5v9.08h-1.57V16.62c0-2.19-1.18-4-3.78-4s-4.54,1.9-4.54,5v7.79H137.3V5.62Z" transform="translate(0 0)"/><path class="cls-2" d="M163.2,25.37h-1.55l0-2.57h-0.05a5.14,5.14,0,0,1-4.85,2.85,4.69,4.69,0,0,1-5-5v-9.1h1.57V20.3c0,2.19,1.18,4,3.78,4s4.54-1.9,4.54-5V11.56h1.57V25.37Z" transform="translate(0 0)"/><path class="cls-2" d="M166.56,11.56h1.52l0,2.57h0a4.29,4.29,0,0,1,4-2.85,3.79,3.79,0,0,1,1.36.23V13a4.38,4.38,0,0,0-1.47-.26c-2.33,0-3.86,2.08-3.86,4.45v8.15h-1.57V11.56Z" transform="translate(0 0)"/><path class="cls-2" d="M174.76,18.47c0-4,2.44-7.2,6.53-7.2a6,6,0,0,1,5.53,3.27l-1.34.72a4.55,4.55,0,0,0-4.2-2.65c-3.17,0-5,2.57-5,5.84s1.81,5.86,5,5.86a4.58,4.58,0,0,0,4.22-2.6l1.31,0.72a6,6,0,0,1-5.56,3.21C177.2,25.65,174.76,22.49,174.76,18.47Z" transform="translate(0 0)"/><path class="cls-2" d="M189.54,5.62h1.57V14.1h0.05A5.17,5.17,0,0,1,196,11.27a4.7,4.7,0,0,1,5,5v9.08h-1.57V16.62c0-2.19-1.18-4-3.78-4s-4.54,1.9-4.54,5v7.79h-1.57V5.62Z" transform="translate(0 0)"/><g id="Icon_outline_white" data-name="Icon outline white"><g class="cls-3"><g class="cls-3"><path class="cls-2" d="M16,1.89A14.11,14.11,0,1,1,1.89,16,14.12,14.12,0,0,1,16,1.89M16,0A16,16,0,1,0,32,16,16,16,0,0,0,16,0" transform="translate(0 0)"/><polygon class="cls-2" points="21.41 11.62 16.15 17.19 10.88 11.62 6.49 13.39 16.15 23.58 25.8 13.39 21.41 11.62"/></g></g></g></svg>